<?xml version="1.0" encoding="utf-8"?>
<!-- Svg Vector Icons : http://www.onlinewebfonts.com/icon -->
<!DOCTYPE svg PUBLIC "-//W3C//DTD SVG 1.1//EN" "http://www.w3.org/Graphics/SVG/1.1/DTD/svg11.dtd">
<svg version="1.1" xmlns="http://www.w3.org/2000/svg" xmlns:xlink="http://www.w3.org/1999/xlink" x="0px" y="0px" viewBox="0 0 1000 1000" enable-background="new 0 0 1000 1000" xml:space="preserve">
<metadata> Svg Vector Icons : http://www.onlinewebfonts.com/icon </metadata>
<g><path d="M633.6,500c98,0,178.2-80.2,178.2-178.2c0-98-80.2-178.2-178.2-178.2s-178.2,80.2-178.2,178.2C455.5,419.8,535.6,500,633.6,500L633.6,500z M232.7,410.9V277.3h-89.1v133.6H10V500h133.6v133.6h89.1V500h133.6v-89.1H232.7L232.7,410.9z M633.6,589.1c-120.3,0-356.4,57.9-356.4,178.2v89.1H990v-89.1C990,647,753.9,589.1,633.6,589.1L633.6,589.1z" fill="rgba(0, 0, 0, 0.3)" fill-opacity="1"/></g>
</svg>
